<svg version="1.1" id="Layer_1" xmlns="http://www.w3.org/2000/svg" x="0" y="0" viewBox="0 0 206.2 167.5"
     xml:space="preserve"><style>.st0{fill:#fff}.st1{fill:#c92127}</style>
    <g id="XMLID_935_"><g id="XMLID_4270_"><g id="XMLID_3620_"><path id="XMLID_3868_" class="st0" d="M24 69.5c-5.6 5.6-5.6 14.8 0 20.4l11 11c4 4 4 10.4 0 14.4s-10.4 4-14.4 0l-10.4-10.4c-13.6-13.6-13.6-35.6 0-49.2s35.6-13.6 49.2 0l94.4 94.4c4 4 4 10.4 0 14.4s-10.4 4-14.4 0l-94.9-95c-5.7-5.6-14.8-5.6-20.5 0z"/><g
            id="XMLID_3697_"><path id="XMLID_3864_" class="st1" d="M148.2 144.5l5.6 5.6c1.9 1.9 2.9 4.4 3 7-5.9.4-13 1.5-20.6 4.2l-13.9-13.9c9-2.8 18.5-3.2 25.9-2.9z"/>
        <path id="XMLID_3863_" class="st1"
              d="M130.3 126.6l11.4 11.4c-6.5.1-15.1 1.1-24.4 4.3l-12.9-12.9c9-2.7 18.5-3.1 25.9-2.8z"/>
        <path id="XMLID_3860_" class="st1"
              d="M51.6 49.9c2.8 1.5 5.4 3.5 7.8 5.9L70 66.4c-6.5.1-15.1 1.1-24.4 4.3l-1.2-1.2c-2.2-2.2-5-3.6-7.9-4.1 4.1-6.2 9.6-11.4 15.1-15.5z"/>
        <path id="XMLID_3849_" class="st1"
              d="M20 77c-.7 3.6 0 7.5 2.1 10.7-7.7.2-15.3-1.5-22-3.8-1-10 2.3-20.3 9.9-28 1.9 6.3 5 13.7 10 21.1z"/>
        <path id="XMLID_3848_" class="st1"
              d="M12.4 107.1l-2.2-2.2c-4-4-6.8-8.7-8.5-13.7 7.2 2 16.2 3.5 26.3 2.8l6.9 6.9c.8.8 1.5 1.8 2 2.8-8.4 2.8-17.3 3.5-24.5 3.4z"/>
        <path id="XMLID_3846_" class="st1"
              d="M37.7 110.1c-.4 1.9-1.3 3.7-2.8 5.2-4 4-10.4 4-14.4 0l-1.9-1.9c5.5-.2 12-1.1 19.1-3.3z"/>
        <path id="XMLID_3845_" class="st1"
              d="M154.4 163.8c-.2.2-.4.5-.7.7-3.3 3.3-8.3 3.9-12.2 1.7 4.4-1.3 8.7-2 12.9-2.4z"/>
        <path id="XMLID_3824_" class="st1"
              d="M15.5 51.3C24.2 45.5 35 44 44.8 47c-5.6 4.7-11.5 11.1-16.6 19.6-1.5.7-2.9 1.7-4.2 2.9-.3.3-.5.5-.7.8-3.8-6-6.2-12.7-7.8-19z"/>
        <path id="XMLID_3822_" class="st1"
              d="M76.6 72.9L88 84.3c-6.5.1-15.1 1.1-24.4 4.3l-13-12.9c9.1-2.7 18.6-3.1 26-2.8z"/>
        <path id="XMLID_3821_" class="st1"
              d="M94.5 90.8l11.4 11.4c-6.5.1-15.1 1.1-24.4 4.3l-13-12.9c9.1-2.7 18.6-3.1 26-2.8z"/>
        <path id="XMLID_3698_" class="st1"
              d="M112.4 108.7l11.4 11.4c-6.5.1-15.1 1.1-24.4 4.3l-12.9-12.9c9-2.7 18.5-3.1 25.9-2.8z"/></g></g><path
            opacity=".4" d="M105.1 130.2l-16-15.9 14.8-14 15.9 15.9z"/><g id="XMLID_3871_"><path id="XMLID_4147_" class="st0" d="M182.1 69.5c5.6 5.6 5.6 14.8 0 20.4l-10.9 10.9c-4 4-4 10.4 0 14.4s10.4 4 14.4 0l10.4-10.4c13.6-13.6 13.6-35.6 0-49.2s-35.6-13.6-49.2 0L52.4 150c-4 4-4 10.4 0 14.4s10.4 4 14.4 0l94.9-94.9c5.6-5.6 14.8-5.6 20.4 0z"/>
        <g id="XMLID_3872_"><path id="XMLID_4146_" class="st1" d="M58 144.5l-5.6 5.6c-1.9 1.9-2.9 4.4-3 7 5.9.4 13 1.5 20.6 4.2l13.9-13.9c-9.1-2.8-18.5-3.2-25.9-2.9z"/>
            <path id="XMLID_3889_" class="st1"
                  d="M75.9 126.6L64.5 138c6.5.1 15.1 1.1 24.4 4.3l12.9-12.9c-9.1-2.7-18.5-3.1-25.9-2.8z"/>
            <path id="XMLID_3888_" class="st1"
                  d="M154.6 49.9c-2.8 1.5-5.4 3.5-7.8 5.9l-10.7 10.7c6.5.1 15.1 1.1 24.4 4.3l1.2-1.2c2.2-2.2 5-3.6 7.9-4.1-4.1-6.3-9.6-11.5-15-15.6z"/>
            <path id="XMLID_3887_" class="st1"
                  d="M186.1 77c.7 3.6 0 7.5-2.1 10.7 7.7.2 15.3-1.5 22-3.8 1-10-2.3-20.3-9.9-28-1.9 6.3-5 13.7-10 21.1z"/>
            <path id="XMLID_3884_" class="st1"
                  d="M193.8 107.1l2.2-2.2c4-4 6.8-8.7 8.5-13.7-7.2 2.1-16.1 3.5-26.3 2.8l-6.9 6.9c-.8.8-1.5 1.8-2 2.8 8.4 2.8 17.3 3.5 24.5 3.4z"/>
            <path id="XMLID_3881_" class="st1"
                  d="M168.4 110.1c.4 1.9 1.3 3.7 2.8 5.2 4 4 10.4 4 14.4 0l1.9-1.9c-5.4-.2-12-1.1-19.1-3.3z"/>
            <path id="XMLID_3880_" class="st1"
                  d="M51.7 163.8c.2.2.4.5.7.7 3.3 3.3 8.3 3.9 12.2 1.7-4.3-1.3-8.7-2-12.9-2.4z"/>
            <path id="XMLID_3879_" class="st1"
                  d="M190.6 51.3c-8.7-5.8-19.5-7.3-29.3-4.3 5.6 4.7 11.5 11.1 16.6 19.6 1.5.7 2.9 1.7 4.2 2.9.3.3.5.5.7.8 3.8-6 6.2-12.7 7.8-19z"/>
            <path id="XMLID_3876_" class="st1"
                  d="M129.6 72.9l-11.4 11.4c6.5.1 15.1 1.1 24.4 4.3l12.9-12.9c-9.1-2.7-18.5-3.1-25.9-2.8z"/>
            <path id="XMLID_3873_" class="st1"
                  d="M111.7 90.8l-11.4 11.4c6.5.1 15.1 1.1 24.4 4.3l12.9-12.9c-9.1-2.7-18.5-3.1-25.9-2.8z"/>
            <path id="XMLID_4148_" class="st1"
                  d="M93.8 108.7l-11.4 11.4c6.5.1 15.1 1.1 24.4 4.3l12.9-12.9c-9.1-2.7-18.5-3.1-25.9-2.8z"/></g></g></g>
        <g id="XMLID_5903_"><g id="XMLID_5961_"><g id="XMLID_5966_"><path id="XMLID_989_" class="st0" d="M99.9 29.1h2.3V57h-2.3V29.1z"/></g><g
                id="XMLID_5965_"><path id="XMLID_988_" class="st0" d="M94.9 53.1l5.3-5.3 1.6 1.6-5.3 5.3-1.6-1.6z"/></g><g
                id="XMLID_5964_"><path id="XMLID_987_" class="st0" d="M94.9 45.7l5.3-5.3 1.6 1.6-5.3 5.3-1.6-1.6z"/></g><g
                id="XMLID_5963_"><path id="XMLID_986_" class="st0" d="M100.2 49.4l1.6-1.6 5.3 5.3-1.6 1.6-5.3-5.3z"/></g><g
                id="XMLID_5962_"><path id="XMLID_985_" class="st0" d="M100.2 42l1.6-1.6 5.3 5.3-1.6 1.6-5.3-5.3z"/></g></g>
            <g id="XMLID_5955_"><g id="XMLID_5960_"><path id="XMLID_984_" class="st0" d="M100 0h2.3v27.9H100V0z"/></g>
                <g id="XMLID_5959_"><path id="XMLID_983_" class="st0" d="M100.4 7.5l5.3-5.3 1.6 1.6-5.3 5.3-1.6-1.6z"/></g>
                <g id="XMLID_5958_"><path id="XMLID_982_" class="st0" d="M100.4 14.9l5.3-5.3 1.6 1.6-5.3 5.3-1.6-1.6z"/></g>
                <g id="XMLID_5957_"><path id="XMLID_981_" class="st0" d="M95.1 3.9l1.6-1.6 5.3 5.3-1.6 1.6-5.3-5.3z"/></g>
                <g id="XMLID_5956_"><path id="XMLID_980_" class="st0" d="M95.1 11.3l1.6-1.6L102 15l-1.6 1.6-5.3-5.3z"/></g></g>
            <g id="XMLID_5949_"><g id="XMLID_5954_"><path id="XMLID_979_" class="st0" d="M72.6 27.3h27.9v2.3H72.6v-2.3z"/></g>
                <g id="XMLID_5953_"><path id="XMLID_978_" class="st0" d="M74.9 23.9l1.6-1.6 5.3 5.3-1.6 1.6-5.3-5.3z"/></g>
                <g id="XMLID_5952_"><path id="XMLID_977_" class="st0" d="M82.3 23.9l1.6-1.6 5.3 5.3-1.6 1.6-5.3-5.3z"/></g>
                <g id="XMLID_5951_"><path id="XMLID_976_" class="st0" d="M74.9 32.9l5.3-5.3 1.6 1.6-5.3 5.3-1.6-1.6z"/></g>
                <g id="XMLID_5950_"><path id="XMLID_975_" class="st0" d="M82.3 32.9l5.3-5.3 1.6 1.6-5.3 5.3-1.6-1.6z"/></g></g>
            <g id="XMLID_5943_"><g id="XMLID_5948_"><path id="XMLID_974_" class="st0" d="M101.7 27.4h27.9v2.3h-27.9v-2.3z"/></g>
                <g id="XMLID_5947_"><path id="XMLID_973_" class="st0" d="M120.5 29.4l1.6-1.6 5.3 5.3-1.6 1.6-5.3-5.3z"/></g>
                <g id="XMLID_5946_"><path id="XMLID_972_" class="st0" d="M113.1 29.4l1.6-1.6 5.3 5.3-1.6 1.6-5.3-5.3z"/></g>
                <g id="XMLID_5945_"><path id="XMLID_971_" class="st0" d="M120.4 27.8l5.3-5.3 1.6 1.6-5.3 5.3-1.6-1.6z"/></g>
                <g id="XMLID_5944_"><path id="XMLID_970_" class="st0" d="M113 27.8l5.3-5.3 1.6 1.6-5.3 5.3-1.6-1.6z"/></g></g>
            <g id="XMLID_5937_"><g id="XMLID_5942_"><path id="XMLID_969_" class="st0" d="M100.8 27.2l19.7-19.7 1.6 1.6-19.7 19.7-1.6-1.6z"/></g>
                <g id="XMLID_5941_"><path id="XMLID_968_" class="st0" d="M115.4 13.2h7.5v2.3h-7.5v-2.3z"/></g>
                <g id="XMLID_5940_"><path id="XMLID_1156_" class="st0" d="M110.1 18.4h7.5v2.3h-7.5v-2.3z"/></g>
                <g id="XMLID_5939_"><path id="XMLID_1155_" class="st0" d="M114.2 6.8h2.3v7.5h-2.3V6.8z"/></g>
                <g id="XMLID_5938_"><path id="XMLID_1154_" class="st0" d="M109 12.1h2.3v7.5H109v-7.5z"/></g></g>
            <g id="XMLID_5930_"><g id="XMLID_5936_"><path id="XMLID_1153_" class="st0" d="M80.1 47.8l19.7-19.7 1.6 1.6-19.7 19.8-1.6-1.7z"/></g>
                <g id="XMLID_5934_"><path id="XMLID_1152_" class="st0" d="M79.3 41.5h7.5v2.3h-7.5v-2.3z"/></g>
                <g id="XMLID_5933_"><path id="XMLID_967_" class="st0" d="M84.5 36.3H92v2.3h-7.5v-2.3z"/></g>
                <g id="XMLID_5932_"><path id="XMLID_966_" class="st0" d="M85.7 42.7H88v7.5h-2.3v-7.5z"/></g>
                <g id="XMLID_5931_"><path id="XMLID_965_" class="st0" d="M90.9 37.4h2.3v7.5h-2.3v-7.5z"/></g></g>
            <g id="XMLID_5924_"><g id="XMLID_5929_"><path id="XMLID_964_" class="st0" d="M100.8 29.8l1.6-1.6 19.7 19.7-1.6 1.6-19.7-19.7z"/></g>
                <g id="XMLID_5928_"><path id="XMLID_963_" class="st0" d="M114.1 42.8h2.3v7.5h-2.3v-7.5z"/></g>
                <g id="XMLID_5927_"><path id="XMLID_962_" class="st0" d="M108.9 37.6h2.3v7.5h-2.3v-7.5z"/></g>
                <g id="XMLID_5926_"><path id="XMLID_961_" class="st0" d="M115.3 41.6h7.5v2.3h-7.5v-2.3z"/></g>
                <g id="XMLID_5925_"><path id="XMLID_960_" class="st0" d="M110 36.4h7.5v2.3H110v-2.3z"/></g></g>
            <g id="XMLID_5905_"><g id="XMLID_5923_"><path id="XMLID_959_" class="st0" d="M80.2 9.1l1.6-1.6 19.7 19.7-1.6 1.6L80.2 9.1z"/></g>
                <g id="XMLID_5922_"><path id="XMLID_958_" class="st0" d="M85.8 6.7h2.3v7.5h-2.3V6.7z"/></g>
                <g id="XMLID_5921_"><path id="XMLID_957_" class="st0" d="M91 11.9h2.3v7.5H91v-7.5z"/></g>
                <g id="XMLID_5920_"><path id="XMLID_956_" class="st0" d="M79.4 13.1h7.5v2.3h-7.5v-2.3z"/></g>
                <g id="XMLID_5906_"><path id="XMLID_955_" class="st0" d="M84.6 18.3h7.5v2.3h-7.5v-2.3z"/></g></g>
            <g id="XMLID_5904_"><path id="XMLID_940_" class="st0" d="M101 33.8c-2.9 0-5.3-2.4-5.3-5.3s2.4-5.3 5.3-5.3 5.3 2.4 5.3 5.3-2.4 5.3-5.3 5.3zm0-8.4c-1.7 0-3.1 1.4-3.1 3.1s1.4 3.1 3.1 3.1 3.1-1.4 3.1-3.1-1.4-3.1-3.1-3.1z"/></g></g></g>
    <path class="st0" d="M97.6 24.9h7v7h-7z"/></svg>