<svg xmlns="http://www.w3.org/2000/svg" width="72" height="72" viewBox="0 0 72 72">
  <g fill="none" fill-rule="evenodd" transform="translate(0 12)">
    <g transform="translate(0 18)">
      <polygon fill="#22B89B" points="3.429 29 68.571 29 68.571 5.971 3.429 5.971"/>
      <polygon fill="#24A48C" points="0 0 0 2.985 0 5.971 2.516 5.971 69.484 5.971 72 5.971 72 2.985 72 0"/>
    </g>
    <path stroke="#FED600" stroke-width="3.44" d="M32.0968351 2.59033547C35.5503775 6.04384026 36 19 36 19 36 19 23.043975 18.5501065 19.5901568 15.0966017 16.1366144 11.6430969 16.1366144 6.04384026 19.5901568 2.59033547 23.043975-.863445157 28.6430168-.863445157 32.0968351 2.59033547M40.9031649 2.59033547C37.4496225 6.04384026 37 19 37 19 37 19 49.956025 18.5501065 53.4098432 15.0966017 56.8633856 11.6430969 56.8633856 6.04384026 53.4098432 2.59033547 49.956025-.863445157 44.3569832-.863445157 40.9031649 2.59033547"/>
    <rect width="4" height="29" x="34" y="18" fill="#FED600"/>
  </g>
</svg>
