<svg xmlns="http://www.w3.org/2000/svg" width="72" height="72" viewBox="0 0 72 72">
  <g fill="none" fill-rule="evenodd" transform="translate(3 4)">
    <g transform="translate(0 13)">
      <polygon fill="#FF3D00" points="6 50 60 50 60 11 6 11"/>
      <polygon points="1 2.874 63.871 2.874 63.871 10.283 1 10.283"/>
      <path fill="#E03600" d="M63.0143346,11 L1.98566542,11 C1.43901059,11 0.993661867,10.5610352 0.985769641,10.0144373 L0.884489468,3 L0.884489468,3 L64.1155105,3 L64.0142304,10.0144373 C64.0063381,10.5610352 63.5609894,11 63.0143346,11 Z" transform="matrix(1 0 0 -1 0 14)"/>
      <polygon fill="#FED600" points="29 50 36 50 36 3 29 3"/>
      <path fill="#F1C818" d="M32.4355797,7.77837031 L32.4355797,7.77837031 C30.2264313,7.77837031 28.435461,6.68664404 28.435461,5.34000794 L28.435461,2.82869012 C28.435461,1.48205402 30.2264313,0.390327752 32.4355797,0.390327752 C34.6447281,0.390327752 36.435461,1.48205402 36.435461,2.82869012 L36.435461,5.34000794 C36.435461,6.68664404 34.6447281,7.77837031 32.4355797,7.77837031"/>
    </g>
    <path stroke="#FED600" stroke-width="5" d="M27.5436364 2.49527056C30.8706294 5.82203227 31.3037762 18.302703 31.3037762 18.302703 31.3037762 18.302703 18.8225035 17.8693205 15.4952448 14.5425588 12.1682517 11.2157971 12.1682517 5.82203227 15.4952448 2.49527056 18.8225035-.831756855 24.2163776-.831756855 27.5436364 2.49527056M37.7500112 2.49527056C34.4230182 5.82203227 33.9898713 18.302703 33.9898713 18.302703 33.9898713 18.302703 46.4711441 17.8693205 49.7984028 14.5425588 53.1253958 11.2157971 53.1253958 5.82203227 49.7984028 2.49527056 46.4711441-.831756855 41.0772699-.831756855 37.7500112 2.49527056"/>
  </g>
</svg>
