<svg width="66" height="24" xmlns="http://www.w3.org/2000/svg">
    <path d="M23 9.515l-8.886-.022 3.013-3.12a7.382 7.382 0 00-5.24-2.18c-4.17 0-7.54 3.49-7.54 7.807 0 4.347 3.37 7.837 7.54 7.837 2.69 0 5.056-1.47 6.387-3.643l3.43 2.204C19.634 21.796 15.997 24 11.887 24 5.323 24 0 18.796 0 12S5.323 0 11.887 0c3.137 0 5.996 1.304 8.095 3.418L23 .294v9.22zm4.596 7.833c1.414 1.405 3.475 2.242 5.801 2.242 4.093 0 5.948-4.453 1.413-5.707l-3.769-.987c-3.21-.866-5.418-3.077-5.418-6.214-.088-3.586 3.622-6.574 7.774-6.484 2.856 0 5.536.926 7.538 2.51L38.61 6.053c-1.413-1.165-3.151-1.763-5.212-1.763-3.445 0-5.183 3.556-1.295 4.691l3.533.927c3.386.866 6.125 3.077 6.125 6.723.088 3.883-3.799 7.08-8.363 6.991-3.15 0-6.037-1.076-8.156-2.898l2.355-3.377zm34.77-9.511c-1.41-2.204-3.918-3.643-6.77-3.643-4.417 0-7.99 3.49-7.99 7.806 0 4.347 3.573 7.837 7.99 7.837 2.852 0 5.36-1.47 6.77-3.643L66 18.398C63.807 21.796 59.953 24 55.597 24 48.64 24 43 18.796 43 12S48.64 0 55.597 0C59.953 0 63.807 2.234 66 5.602l-3.635 2.235zM52 11.5a3.5 3.5 0 117 0 3.5 3.5 0 01-7 0z"
          fill="#FFF" fill-rule="evenodd"/>
</svg>