<svg version="1.1" id="Layer_1" xmlns="http://www.w3.org/2000/svg" x="0" y="0" viewBox="0 0 153.6 228.7" xml:space="preserve"><style>.st0{fill:#4ea547}</style><g id="XMLID_285_"><path class="st0" d="M76.8 57.5l-1.4-2.8c-.7-1.4-17.2-35.6-8.7-49.1C69.1 1.9 72.9 0 78.2 0c4.1 0 7.2 1.5 9.1 4.5 8.1 12.7-8.4 48.6-9.2 50.1l-1.3 2.9zM78.2 3C74 3 71 4.4 69.3 7.1c-3.1 4.9-2.6 14.4 1.5 27.4 2 6.5 4.5 12.4 6 15.8 5-11.7 13.5-35.7 8-44.2C83.4 4 81.3 3 78.2 3z" id="XMLID_112_"/><path class="st0" d="M50.7 49.4h52.2v33.2H50.7z" id="XMLID_110_"/><path class="st0" d="M50.7 49.4h52.2v33.2H50.7z" id="XMLID_113_"/><circle cx="76.8" cy="151.9" r="76.8" fill="#ffcf41" id="XMLID_260_"/><path class="st0" d="M102.9 160.7l-19.1-27.8h7l-14-20.6-14.1 20.6h7.1l-19.1 27.8h13.1l-13.1 19.1h20.5v11.7h11.1v-11.7h20.6l-13.1-19.1z" id="XMLID_1990_"/><path class="st0" d="M148.3 179.8c3.4-8.7 5.2-18.1 5.2-27.9 0-10.8-2.2-21.1-6.3-30.4l-7.8 11.4h7l-19.1 27.9h13l-13 19.1h21z" id="XMLID_119_"/><path class="st0" d="M5.2 179.8c-3.3-8.6-5.2-18-5.2-27.9 0-10.8 2.2-21.1 6.3-30.4l7.8 11.4H7l19.1 27.9H13l13 19.1H5.2z" id="XMLID_130_"/></g></svg>